<svg xmlns="http://www.w3.org/2000/svg" version="1.1" xmlns:xlink="http://www.w3.org/1999/xlink" width="512" height="512" x="0" y="0" viewBox="0 0 1024 1024" style="enable-background:new 0 0 512 512" xml:space="preserve" class=""><rect width="1024" height="1024" fill="#16a34a" shape="square"></rect><g transform="matrix(0.7,0,0,0.7,153.77077789306645,153.62119903564457)"><path d="M646.8 311.4c0 3.7-.1 7.5-.4 11.2-.1 1.8-.3 3.7-.5 5.5l-.3 2.7c.5-3.4-.2 1.1-.3 1.4-1.2 7.3-3 14.6-5.3 21.6-1 3.2-2.2 6.3-3.4 9.4-1 2.7-.3.6 0 .1-.4.8-.7 1.6-1.1 2.4-.9 2-1.9 4-2.9 6-3.3 6.4-7 12.6-11.2 18.5l-1.5 2.1c-.2.3-1.9 2.5-.8 1.1s-.6.7-.8 1.1c-.5.7-1.1 1.4-1.7 2-2.4 2.8-4.8 5.6-7.4 8.3-2.4 2.5-4.9 4.9-7.5 7.3-1.3 1.2-2.6 2.3-3.9 3.4-.7.6-1.3 1.1-2 1.7-.2.2-3.7 2.8-1.1.9-5.6 4.2-11.5 8-17.6 11.4-3.1 1.7-6.2 3.3-9.4 4.8-.6.3-5.3 2.3-2.5 1.2-2 .8-4.1 1.6-6.2 2.4-7 2.5-14.1 4.5-21.4 6-1.8.4-3.6.7-5.4 1-.4.1-3.3.5-1.4.2s-1 .1-1.4.2c-3.9.5-7.8.8-11.8.9-7.7.3-15.4 0-23-.9-.4 0-3.3-.5-1.4-.2s-1-.2-1.4-.2c-1.8-.3-3.6-.6-5.4-1-3.8-.8-7.5-1.6-11.2-2.7-3.4-1-6.8-2.1-10.2-3.3-1.7-.6-3.3-1.3-5-1.9-2.7-1-.6-.3-.1 0-1.2-.5-2.4-1.1-3.6-1.6-6.6-3.1-12.9-6.6-19-10.6-2.7-1.8-5.4-3.7-8-5.7 2.3 1.7-1.4-1.1-2.1-1.7-1.7-1.4-3.3-2.8-5-4.3-5.3-4.8-10.3-10-14.9-15.5-.6-.7-1.1-1.3-1.7-2-.3-.3-1.9-2.5-.8-1.1s-.6-.8-.8-1.1l-1.5-2.1c-2.1-3-4.2-6.1-6.1-9.3-1.8-3-3.5-6.1-5.1-9.2-.8-1.6-1.6-3.2-2.3-4.8-.4-.8-.7-1.6-1.1-2.4-1.8-3.9 1 2.8-.6-1.3-2.6-6.7-4.8-13.4-6.5-20.4-.9-3.5-1.6-7.1-2.2-10.6-.1-.9-.3-1.8-.4-2.7.4 2.8.1.5 0-.1-.3-2.3-.5-4.6-.7-6.9-.6-7.7-.5-15.4.1-23.1.1-1.8.3-3.7.5-5.5 0-.4.5-3.3.2-1.4s.2-1 .2-1.4c.6-3.8 1.4-7.6 2.3-11.3 1.7-7.2 4.1-14.1 6.8-21 .9-2.2-.9 2 0-.1.4-.8.7-1.6 1.1-2.4.7-1.6 1.5-3.2 2.3-4.8 1.7-3.3 3.5-6.6 5.4-9.8 1.8-3 3.7-5.9 5.7-8.8 1-1.4 2-2.8 3.1-4.2-1.6 2.2-.3.4.1-.1.8-1 1.6-2 2.5-3 4.6-5.5 9.6-10.7 15-15.5 1.3-1.2 2.6-2.3 4-3.4.7-.6 1.3-1.1 2-1.7.3-.3 2.5-1.9 1.1-.8-1.1.8 2.1-1.5 2.7-2 1.8-1.3 3.6-2.5 5.4-3.7 6.1-4 12.4-7.5 19-10.5.8-.4 1.6-.7 2.4-1.1 2.1-1-2.1.8.1 0 1.6-.7 3.3-1.3 5-1.9 3.6-1.3 7.2-2.5 10.8-3.5 3.5-1 7-1.8 10.5-2.5 1.8-.4 3.6-.7 5.4-1 .9-.1 1.8-.3 2.7-.4-3.3.5 1.1-.1 1.5-.2 7.4-.8 14.9-1.1 22.3-.8 3.7.1 7.4.4 11.1.8l2.7.3c-2.9-.4-.5 0 .1 0 2.2.4 4.5.8 6.7 1.2 7.2 1.5 14.4 3.5 21.3 6 1.7.6 3.3 1.3 5 1.9 2.2.9-2-.9.1 0 .8.4 1.6.7 2.4 1.1 3.4 1.6 6.7 3.3 10 5.1 3.1 1.7 6.1 3.5 9 5.4 1.5 1 2.9 1.9 4.3 2.9l2.1 1.5c.3.2 3.1 2.3 1.6 1.2-1.4-1.1.7.6 1.1.8.7.5 1.4 1.1 2 1.7 1.3 1.1 2.7 2.3 4 3.4 2.8 2.5 5.4 5 8 7.7 2.4 2.5 4.8 5.1 7 7.8 1.1 1.3 2.2 2.7 3.3 4.1-1.7-2.2-.3-.3 0 .1.8 1.1 1.5 2.1 2.3 3.2 4.2 5.9 7.9 12.1 11.1 18.6.8 1.6 1.6 3.2 2.3 4.8.4.8.7 1.6 1.1 2.4 1 2.1-.8-2.1 0 .1 1.4 3.5 2.7 7 3.9 10.6 2.3 7.1 4 14.3 5.2 21.7.1.4.5 3.3.2 1.4s.1 1 .2 1.4c.2 1.8.4 3.7.5 5.5.3 4.1.5 8.1.5 12 0 7.8 6.9 15.4 15 15s15-6.6 15-15c-.3-69.1-44.1-131-108.7-154.9-63.7-23.6-139.1-3.3-182.3 49-22 26.7-35.2 58.8-38.1 93.3-2.8 33.9 5.6 68.8 23.2 97.8 16.9 27.8 42.3 51 72.1 64.4 32.3 14.5 67.7 18.6 102.4 11.7 65.4-13.1 118.9-68.5 129-134.6 1.4-8.9 2.2-17.8 2.3-26.8 0-7.8-6.9-15.4-15-15-8.1.5-14.9 6.7-14.9 15.1zM315.8 847.4c-2.1 0-4.2-.1-6.2-.2-1.1-.1-2.3-.2-3.4-.3.6.1 2.9.5-.1-.1-4.2-.8-8.3-1.8-12.3-3.1-.9-.3-5.9-2.4-3.2-1.1-1.6-.7-3.2-1.5-4.7-2.3-3.9-2-7.6-4.4-11-7 2.3 1.8-1.3-1.1-2-1.8-1.5-1.3-2.9-2.7-4.2-4-1.4-1.4-2.7-2.8-3.9-4.3-.6-.7-1.1-1.3-1.6-2 1.9 2.5-.4-.6-.8-1.2-2.2-3.2-4.2-6.6-6-10.2-.4-.8-.7-1.6-1.1-2.4 1.2 2.5.2.5 0-.1-.9-2.3-1.7-4.6-2.3-6.9-.6-1.9-1-3.9-1.5-5.9-.2-1-.9-5.8-.6-2.7-.4-3.3-.6-6.6-.6-9.9v-42.5c0-8-.2-16 .2-23.9.2-4.2.5-8.4.9-12.6.1-.9.2-1.8.3-2.8-.4 3 0-.1.1-.8.3-2.3.7-4.5 1.2-6.8 1.6-8.2 3.7-16.3 6.4-24.3l1.8-5.1c.4-1 .8-2.1 1.2-3.1.3-.7 1.4-3.4.3-.8a216 216 0 0 1 5.1-10.9c3.7-7.3 7.9-14.3 12.5-21.1 1.1-1.6 2.3-3.2 3.5-4.8.5-.7 1.1-1.4 1.6-2.1-1.6 2.2-.2.3.1-.1 2.8-3.4 5.6-6.8 8.6-10 5.4-5.8 11.1-11.3 17.2-16.4.7-.6 1.4-1.1 2-1.7-.1.1 3.3-2.6 1.6-1.3s1.7-1.3 1.6-1.2c.7-.5 1.4-1 2.1-1.6 3.2-2.3 6.5-4.5 9.9-6.6 7.1-4.5 14.6-8.4 22.3-11.8.8-.4 1.6-.7 2.5-1.1-.6.2-2.6 1 .1 0 1.9-.7 3.7-1.5 5.6-2.2 4-1.5 8.1-2.8 12.2-3.9 7.9-2.2 15.9-3.9 24.1-5.1-3 .4.1 0 .8-.1 1.2-.1 2.3-.3 3.5-.4 1.9-.2 3.7-.4 5.6-.4 1.6-.1 3.2 0 4.8-.1h199.7c5.5 0 10.9.1 16.4.6 1 .1 5.8.7 2.9.3 2 .3 4.1.6 6.1 1 4.3.8 8.5 1.7 12.7 2.7 7.9 2 15.5 4.6 23.1 7.5 4 1.5-1.6-.7.7.3 1 .4 2 .9 3.1 1.4 1.6.7 3.2 1.5 4.8 2.3 3.8 1.9 7.5 3.8 11.1 5.9 3.4 2 6.8 4.1 10.1 6.3 1.6 1.1 3.3 2.2 4.9 3.4.7.5 1.4 1 2.1 1.6.2.2 3.7 2.8 1.2.9 6.2 4.9 12.1 10.2 17.7 15.9 2.8 2.8 5.4 5.7 8 8.7 1.3 1.5 2.5 3 3.8 4.6.3.3 2 2.5.9 1.1-1-1.3 1.3 1.8 1.6 2.2 4.8 6.6 9.2 13.5 13.1 20.7 1.8 3.3 3.5 6.7 5.1 10.1.8 1.8 1.7 3.6 2.5 5.5-1.1-2.5-.2-.4 0 .1.5 1.3 1 2.5 1.5 3.8 2.9 7.8 5.3 15.8 7.1 24 .8 3.8 1.6 7.6 2.2 11.5 0-.1.6 4.3.3 2.1-.2-1.9.1 1 .2 1.4.3 2.5.5 5.1.7 7.6 1.4 20.1.5 40.6.5 60.7v14.2c-.1 2.1-.2 4.1-.5 6.2-.2 2.4.4-2.3 0 .1-.2 1.3-.5 2.7-.8 4-.8 3.7-1.9 7.3-3.2 10.9 0-.1-1.6 3.9-.7 1.9s-.9 1.9-.9 1.8c-1 2-2 3.9-3.1 5.8-.9 1.5-1.8 3-2.8 4.4.1-.1-2.4 3.4-1.1 1.6 1.1-1.4-.6.7-.8 1-2.7 3.2-5.5 6.1-8.6 8.9-.6.6-1.3 1.1-2 1.7-3.1 2.8 1.5-1-.6.5-1.6 1.2-3.2 2.3-4.8 3.3l-4.5 2.7c-1 .5-1.9 1-2.9 1.5-.4.2-4 1.9-2.4 1.2 1.7-.7-.9.3-1.3.5-1 .4-2.1.8-3.1 1.1-1.7.6-3.4 1.1-5.1 1.5-2 .5-3.9.9-5.9 1.3-.8.1-3.8.5-.7.2-1.4.2-2.7.3-4.1.4-3.3.2-6.7.2-10 .2H419.5c-7.8 0-15.4 6.9-15 15s6.6 15 15 15H695.6c14.2 0 28.2 0 42-4.4 36.8-11.9 62.5-44.4 66.4-82.6.9-8.5.4-17.3.4-25.8v-34.5c0-30.3-4.9-59.1-17.1-87-14.1-32.4-37.6-60.1-66.2-80.6-28.9-20.8-63.5-32.7-98.9-35.5-11.3-.9-23-.3-34.3-.3h-138c-13 0-26-.1-38.9 0-30.6.2-61.3 9.2-88.1 23.8-62.9 34.3-102.1 101.9-102.3 173.3v55.8c0 33.4 15.7 64.1 43.7 82.5 15.3 10.1 33.7 15.2 51.9 15.3 7.8.1 15.4-6.9 15-15-.8-8.2-7-15-15.4-15z" fill="#ffffff" opacity="1" data-original="#000000" class=""></path></g></svg>